<svg width="48" height="77" viewBox="0 0 48 77" fill="none" xmlns="http://www.w3.org/2000/svg">
<path d="M5 5.47101L5 71.5742C5 71.7609 5.15138 71.9124 5.33813 71.9124H42.6755C42.8622 71.9124 43.0136 71.7609 43.0136 71.5742L43.0136 5.47101C43.0136 5.28427 42.8622 5.13287 42.6755 5.13287H5.33813C5.15138 5.13287 5 5.28427 5 5.47101Z" stroke="#243038" stroke-width="9.49066" stroke-linejoin="round"/>
<path d="M21.4598 71.9986C21.0621 71.9986 20.7396 72.1045 20.7396 72.2352C20.7396 72.3659 21.0621 72.4719 21.4598 72.4719H26.5503C26.948 72.4719 27.2705 72.3659 27.2705 72.2352C27.2705 72.1045 26.948 71.9986 26.5503 71.9986H21.4598Z" fill="#CCCCCC" stroke="#CCCCCC" stroke-width="2.67506" stroke-linecap="round" stroke-linejoin="round"/>
<path d="M5.87073 9.74488L5.87073 68.5074H42.1413L42.1413 9.74488H5.87073Z" fill="white"/>
<path d="M24.0098 3.99999C24.2615 3.99999 24.5029 4.09999 24.6809 4.27798C24.8589 4.45597 24.9589 4.69738 24.9589 4.9491C24.9589 5.20082 24.8589 5.44223 24.6809 5.62022C24.5029 5.79821 24.2615 5.89819 24.0098 5.89819C23.758 5.89819 23.5166 5.79821 23.3386 5.62022C23.1606 5.44223 23.0607 5.20082 23.0607 4.9491C23.0607 4.69738 23.1606 4.45597 23.3386 4.27798C23.5166 4.09999 23.758 3.99999 24.0098 3.99999Z" fill="white"/>
<path d="M9.16406 11.794V18.2098L38.8497 18.2098V11.794L9.16406 11.794Z" fill="#45AEEF"/>
<path d="M8.93237 21.848H35.4548ZM8.9814 24.8218H31.2672Z" fill="#CCCCCC"/>
<path d="M8.93237 21.848H35.4548M8.9814 24.8218H31.2672" stroke="#CCCCCC" stroke-width="1.89682"/>
<path d="M8.94763 28.1506H24.7938Z" fill="#CCCCCC"/>
<path d="M8.94763 28.1506H24.7938" stroke="#2BA4EF" stroke-width="1.89682"/>
<path d="M8.92566 31.8261V43.5387H22.7718V31.8261H8.92566Z" fill="#CCCCCC"/>
<path d="M24.1682 31.8261V43.5387H38.0144V31.8261H24.1682Z" fill="#45AEEF"/>
<path d="M8.92566 46.4702V58.1829H22.7718V46.4702H8.92566Z" fill="#169DF0"/>
<path d="M24.1682 46.4702V58.1829H38.0144V46.4702H24.1682Z" fill="#243038"/>
<path d="M9.16406 60.0595V66.4753H38.8497V60.0595H9.16406Z" fill="#45AEEF"/>
</svg>
