<svg width="1203" height="428" viewBox="0 0 1203 428" fill="none" xmlns="http://www.w3.org/2000/svg">
rect opacity="0.5" x="701.394" y="239.274" width="202" height="423" rx="7.5" transform="rotate(-77.3523 701.394 239.274)" fill="white" fill-opacity="0.2" stroke="white"/>
<rect opacity="0.5" x="716.84" y="235.457" width="187.954" height="393.663" rx="7.5" transform="rotate(-77.3523 716.84 235.457)" fill="white" fill-opacity="0.2" stroke="white"/>
<g opacity="0.5">
<mask id="path-3-inside-1_131_1024" fill="white">
<path d="M982.154 222.242C982.154 204.982 975.298 188.43 963.094 176.225C950.889 164.021 934.337 157.165 917.077 157.165C899.818 157.165 883.265 164.021 871.061 176.225C858.856 188.43 852 204.982 852 222.242L917.077 222.242H982.154Z"/>
</mask>
<path d="M982.154 222.242C982.154 204.982 975.298 188.43 963.094 176.225C950.889 164.021 934.337 157.165 917.077 157.165C899.818 157.165 883.265 164.021 871.061 176.225C858.856 188.43 852 204.982 852 222.242L917.077 222.242H982.154Z" fill="white" fill-opacity="0.2" stroke="white" stroke-width="2" mask="url(#path-3-inside-1_131_1024)"/>
</g>
<rect opacity="0.5" x="854.918" y="143.22" width="6.19747" height="31.6237" rx="3.09873" transform="rotate(-21.3202 854.918 143.22)" fill="white" fill-opacity="0.2" stroke="#F8F8F8"/>
<rect opacity="0.5" x="-0.647572" y="0.283991" width="6.19747" height="31.6237" rx="3.09873" transform="matrix(-0.931563 -0.36358 -0.36358 0.931563 980.979 142.771)" fill="white" fill-opacity="0.2" stroke="#F8F8F8"/>
<circle opacity="0.8" cx="890.986" cy="197.35" r="4.8981" fill="white" fill-opacity="0.2" stroke="white"/>
<circle opacity="0.8" cx="945.398" cy="197.35" r="4.8981" fill="white" fill-opacity="0.2" stroke="white"/>
<path d="M699.322 57.6388C697.696 57.6122 696.282 57.3722 695.082 56.9188C693.909 56.4655 693.002 55.7588 692.362 54.7988C691.722 53.8655 691.402 52.6922 691.402 51.2788V45.3988C691.402 44.4922 691.216 43.7722 690.842 43.2388C690.469 42.6788 689.922 42.2788 689.202 42.0388C688.482 41.7722 687.589 41.6388 686.522 41.6388V38.7188C687.589 38.6922 688.482 38.5588 689.202 38.3188C689.922 38.0788 690.469 37.6922 690.842 37.1588C691.216 36.5988 691.402 35.8788 691.402 34.9988V29.0788C691.402 28.0122 691.589 27.0922 691.962 26.3188C692.362 25.5188 692.909 24.8655 693.602 24.3588C694.322 23.8255 695.162 23.4255 696.122 23.1588C697.082 22.8922 698.149 22.7588 699.322 22.7588V25.6388C698.416 25.6655 697.629 25.8122 696.962 26.0788C696.296 26.3455 695.776 26.7455 695.402 27.2788C695.056 27.8122 694.882 28.5188 694.882 29.3988V35.1588C694.882 36.5188 694.522 37.6122 693.802 38.4388C693.082 39.2388 691.989 39.7722 690.522 40.0388V40.2788C692.016 40.5455 693.109 41.0922 693.802 41.9188C694.522 42.7188 694.882 43.7988 694.882 45.1588V51.0388C694.882 51.8922 695.056 52.5855 695.402 53.1188C695.749 53.6788 696.256 54.0788 696.922 54.3188C697.589 54.5855 698.389 54.7322 699.322 54.7588V57.6388Z" fill="white" fill-opacity="0.2"/>
<path opacity="0.8" d="M343.368 28.9778C350.509 26.1041 358.083 32.039 357.001 39.6605L352.984 67.9556C351.902 75.5772 342.975 79.1693 336.916 74.4215L314.42 56.795C308.361 52.0471 309.713 42.5201 316.855 39.6464L343.368 28.9778Z" fill="white" fill-opacity="0.2"/>
<path opacity="0.4" d="M33.8167 130.179C38.349 123.956 47.9176 124.974 51.0401 132.01L62.6323 158.132C65.7547 165.169 60.0893 172.946 52.4344 172.132L24.0158 169.11C16.361 168.296 12.4579 159.501 16.9903 153.279L33.8167 130.179Z" fill="white" fill-opacity="0.2"/>
<path d="M122.439 281.541L150.566 304.947L115.495 317.468L122.439 281.541Z" fill="white" fill-opacity="0.2"/>
<path opacity="0.4" d="M627.703 42.2558L636.187 77.8501L600.61 66.8506L627.703 42.2558Z" fill="white" fill-opacity="0.2"/>
<path d="M668.14 230.683L646.183 259.955L631.908 225.56L668.14 230.683Z" fill="white" fill-opacity="0.2"/>
<circle opacity="0.4" cx="261.5" cy="279.819" r="13.5" fill="white" fill-opacity="0.2"/>
<circle opacity="0.8" cx="1077.5" cy="84.8188" r="13.5" fill="white" fill-opacity="0.2"/>
<circle opacity="0.4" cx="1189.5" cy="238.819" r="13.5" fill="white" fill-opacity="0.2"/>
<path d="M1128.68 392.759C1129.62 392.732 1130.4 392.586 1131.04 392.319C1131.71 392.052 1132.22 391.639 1132.56 391.079C1132.94 390.546 1133.12 389.852 1133.12 388.999V383.199C1133.12 381.839 1133.48 380.759 1134.2 379.959C1134.92 379.132 1136.02 378.586 1137.48 378.319V378.079C1136.02 377.812 1134.92 377.279 1134.2 376.479C1133.48 375.652 1133.12 374.559 1133.12 373.199V367.359C1133.12 366.479 1132.95 365.772 1132.6 365.239C1132.26 364.706 1131.75 364.306 1131.08 364.039C1130.44 363.772 1129.64 363.639 1128.68 363.639V360.759C1129.91 360.759 1131 360.892 1131.96 361.159C1132.95 361.426 1133.79 361.826 1134.48 362.359C1135.18 362.866 1135.7 363.519 1136.04 364.319C1136.42 365.119 1136.6 366.052 1136.6 367.119V372.959C1136.6 373.866 1136.79 374.599 1137.16 375.159C1137.54 375.692 1138.08 376.092 1138.8 376.359C1139.55 376.599 1140.44 376.719 1141.48 376.719V379.639C1140.44 379.639 1139.55 379.772 1138.8 380.039C1138.08 380.279 1137.54 380.666 1137.16 381.199C1136.79 381.732 1136.6 382.452 1136.6 383.359V389.319C1136.6 390.732 1136.27 391.906 1135.6 392.839C1134.94 393.772 1134 394.466 1132.8 394.919C1131.63 395.399 1130.26 395.639 1128.68 395.639V392.759Z" fill="white"/>
<path opacity="0.4" d="M651.411 332.414C653.339 324.961 662.612 322.391 668.102 327.787L688.484 347.82C693.974 353.216 691.564 362.532 684.145 364.588L656.605 372.223C649.187 374.279 642.324 367.534 644.253 360.081L651.411 332.414Z" fill="#D9D9D9"/>
<circle cx="436.5" cy="351.819" r="13.5" fill="#D9D9D9"/>
<circle opacity="0.4" cx="1003.5" cy="365.819" r="13.5" fill="#D9D9D9"/>
</svg>
