<svg width="360" height="351" viewBox="0 0 360 351" fill="none" xmlns="http://www.w3.org/2000/svg">
<path fill-rule="evenodd" clip-rule="evenodd" d="M179.993 208.72L126.57 156.632C111.816 142.247 111.816 118.93 126.57 104.545C136.892 94.481 158.071 90.4498 170.891 97.6713C174.401 99.6434 176.572 102.399 176.245 105.879C175.799 110.896 163.098 122.294 158.398 126.905C146.529 138.477 146.529 157.416 158.398 168.987C164.347 174.788 172.17 177.688 179.993 177.688C187.816 177.688 195.64 174.788 201.589 168.987C213.457 157.415 213.457 138.477 201.589 126.905C196.889 122.294 184.187 110.896 183.741 105.879C183.444 102.399 185.585 99.6434 189.095 97.6713C201.916 90.4498 223.095 94.4811 233.416 104.545C248.17 118.93 248.17 142.247 233.416 156.632L179.993 208.72Z" fill="url(#paint0_linear_1_733)"/>
<path opacity="0.37" fill-rule="evenodd" clip-rule="evenodd" d="M229.222 160.722L179.993 208.72L142.603 172.264C158.487 185.982 176.275 186.33 195.967 173.338C197.156 172.612 198.316 171.8 199.447 170.901C200.191 170.321 200.904 169.683 201.589 168.987C208.222 162.549 211.137 153.761 210.364 145.264C221.667 147.381 227.943 152.543 229.222 160.722Z" fill="#2989C0"/>
<path fill-rule="evenodd" clip-rule="evenodd" d="M179.993 118.64L164.972 133.286C156.702 141.348 156.702 154.544 164.972 162.607C173.211 170.641 186.775 170.641 195.015 162.607C203.284 154.544 203.284 141.348 195.015 133.286L179.993 118.64Z" fill="url(#paint1_linear_1_733)"/>
<path opacity="0.2" fill-rule="evenodd" clip-rule="evenodd" d="M179.993 118.64L164.971 133.286C163.484 134.736 162.265 136.389 161.313 138.1C162.532 144.51 169.255 144.306 181.451 137.491C192.04 133.489 198.555 138.042 200.964 151.122C201.946 144.829 199.982 138.129 195.015 133.286L179.993 118.64Z" fill="#A4EBF3"/>
<path opacity="0.14" fill-rule="evenodd" clip-rule="evenodd" d="M158.814 147.033C158.547 152.63 160.599 158.343 164.972 162.607C173.211 170.64 186.775 170.64 195.015 162.607C198.317 159.388 200.31 155.327 200.964 151.122C187.459 137.723 167.738 168.871 158.814 147.033Z" fill="#2062A1"/>
<path opacity="0.31" fill-rule="evenodd" clip-rule="evenodd" d="M179.993 118.64L164.972 133.286C156.702 141.348 156.702 154.544 164.972 162.607C173.211 170.641 186.775 170.641 195.015 162.607C203.284 154.544 203.284 141.348 195.015 133.286L179.993 118.64ZM179.993 119.945L165.626 133.953C157.743 141.638 157.743 154.254 165.626 161.969C173.509 169.654 186.478 169.654 194.36 161.969C202.243 154.254 202.243 141.638 194.36 133.953L179.993 119.945Z" fill="#7BE6FF"/>
<path fill-rule="evenodd" clip-rule="evenodd" d="M181.57 207.183L233.416 156.632C240.526 149.73 244.184 140.739 244.482 131.69C244.749 121.888 241.091 112.027 233.416 104.544C223.095 94.4806 201.916 90.4494 189.095 97.6709C185.585 99.643 183.444 102.398 183.741 105.879C184.187 110.896 196.889 122.294 201.589 126.905C203.106 128.384 204.444 129.979 205.575 131.69C208.847 136.592 210.483 142.276 210.483 147.961C210.483 170.756 197.662 191.493 181.57 207.183Z" fill="url(#paint2_linear_1_733)"/>
<path opacity="0.15" fill-rule="evenodd" clip-rule="evenodd" d="M181.57 207.183L233.416 156.632C212.892 175.977 223.66 149.701 215.658 138.303C212.356 133.663 207.24 130.008 201.589 126.905C203.106 128.384 204.444 129.979 205.575 131.69C208.847 136.592 210.483 142.276 210.483 147.961C210.483 170.756 197.662 191.493 181.57 207.183Z" fill="#F4F9F9"/>
<path opacity="0.41" fill-rule="evenodd" clip-rule="evenodd" d="M242.727 141.754C243.768 138.477 244.363 135.084 244.482 131.691C244.75 121.888 241.091 112.027 233.417 104.545C223.095 94.4809 201.916 90.4497 189.095 97.6712C185.586 99.6433 183.444 102.399 183.741 105.879C184.098 107.271 184.634 108.518 185.348 109.62L185.407 109.678C188.56 114.434 194.985 116.32 204.772 115.333C225.117 113.332 243.024 114.84 242.727 141.754Z" fill="#1D1D1D"/>
<path opacity="0.56" fill-rule="evenodd" clip-rule="evenodd" d="M199.447 170.901C195.461 186.301 189.006 198.888 179.993 208.72L181.57 207.183C197.662 191.493 210.483 170.756 210.483 147.961C210.483 155.588 207.538 163.216 201.589 168.987C200.904 169.683 200.191 170.321 199.447 170.901Z" fill="#065F96"/>
<path opacity="0.38" fill-rule="evenodd" clip-rule="evenodd" d="M117.289 141.754C116.218 138.477 115.623 135.084 115.534 131.691C115.237 121.888 118.925 112.027 126.57 104.545C136.892 94.4809 158.071 90.4497 170.891 97.6712C174.401 99.6433 176.572 102.399 176.245 105.879C175.888 107.271 175.353 108.518 174.639 109.62L174.579 109.678C171.456 114.434 165.001 116.32 155.244 115.333C134.899 113.332 116.962 114.84 117.289 141.754Z" fill="#A4EBF3"/>
<path opacity="0.42" fill-rule="evenodd" clip-rule="evenodd" d="M181.57 207.183L192.635 196.394C198.376 189.956 203.552 180.211 205.902 174.614C209.471 166.203 211.583 157.242 211.583 147.961C211.583 141.986 209.828 136.099 206.467 131.111C205.277 129.313 203.909 127.659 202.362 126.151C198.673 122.584 185.228 110.403 184.812 105.792C184.515 102.486 186.924 100.107 189.631 98.5703C196.562 94.6839 205.604 94.394 213.279 95.873C220.209 97.2361 227.586 100.368 232.643 105.299C239.812 112.288 244.75 121.946 244.452 131.836L244.482 131.691C244.749 121.888 241.091 112.027 233.416 104.545C223.095 94.4809 201.916 90.4497 189.095 97.6712C185.585 99.6433 183.444 102.399 183.741 105.879C184.187 110.896 196.889 122.294 201.589 126.905C203.106 128.384 204.444 129.979 205.575 131.691C208.847 136.592 210.483 142.276 210.483 147.961C210.483 170.756 197.662 191.493 181.57 207.183Z" fill="#F4F9F9"/>
<path opacity="0.42" fill-rule="evenodd" clip-rule="evenodd" d="M126.57 156.632C111.816 142.247 111.816 118.93 126.57 104.545C136.892 94.481 158.071 90.4498 170.891 97.6713C174.401 99.6434 176.572 102.399 176.245 105.879C175.799 110.896 163.098 122.294 158.398 126.905C146.529 138.477 146.529 157.416 158.398 168.987C164.347 174.788 172.17 177.688 179.993 177.688C187.816 177.688 195.64 174.788 201.589 168.987C207.538 163.216 210.483 155.588 210.483 147.961C210.483 151.557 210.185 155.095 209.56 158.605C208.043 162.665 205.634 166.464 202.302 169.683C196.383 175.484 188.382 178.674 179.993 178.674C171.605 178.674 163.633 175.484 157.684 169.683C145.429 157.734 145.429 138.158 157.684 126.209C161.372 122.613 174.847 110.432 175.264 105.792C175.531 102.457 173.152 100.078 170.385 98.5122C163.455 94.5969 154.382 94.3068 146.708 95.8149C139.747 97.178 132.37 100.281 127.284 105.241C112.917 119.249 112.203 142.624 126.57 156.632Z" fill="#39D5FF"/>
<path d="M87.1669 257V251.8L87.5069 252.72L81.5669 243H83.1469L88.3669 251.54H87.5269L92.7469 243H94.2269L88.2869 252.72L88.6269 251.8V257H87.1669ZM99.3108 257.1C98.2974 257.1 97.3841 256.873 96.5708 256.42C95.7708 255.953 95.1374 255.32 94.6708 254.52C94.2041 253.707 93.9708 252.78 93.9708 251.74C93.9708 250.687 94.2041 249.76 94.6708 248.96C95.1374 248.16 95.7708 247.533 96.5708 247.08C97.3708 246.627 98.2841 246.4 99.3108 246.4C100.351 246.4 101.271 246.627 102.071 247.08C102.884 247.533 103.517 248.16 103.971 248.96C104.437 249.76 104.671 250.687 104.671 251.74C104.671 252.78 104.437 253.707 103.971 254.52C103.517 255.32 102.884 255.953 102.071 256.42C101.257 256.873 100.337 257.1 99.3108 257.1ZM99.3108 255.84C100.071 255.84 100.744 255.673 101.331 255.34C101.917 254.993 102.377 254.513 102.711 253.9C103.057 253.273 103.231 252.553 103.231 251.74C103.231 250.913 103.057 250.193 102.711 249.58C102.377 248.967 101.917 248.493 101.331 248.16C100.744 247.813 100.077 247.64 99.3308 247.64C98.5841 247.64 97.9174 247.813 97.3308 248.16C96.7441 248.493 96.2774 248.967 95.9308 249.58C95.5841 250.193 95.4108 250.913 95.4108 251.74C95.4108 252.553 95.5841 253.273 95.9308 253.9C96.2774 254.513 96.7441 254.993 97.3308 255.34C97.9174 255.673 98.5774 255.84 99.3108 255.84ZM111.91 257.1C111.017 257.1 110.237 256.933 109.57 256.6C108.903 256.267 108.383 255.767 108.01 255.1C107.65 254.433 107.47 253.6 107.47 252.6V246.5H108.89V252.44C108.89 253.56 109.163 254.407 109.71 254.98C110.27 255.54 111.05 255.82 112.05 255.82C112.783 255.82 113.417 255.673 113.95 255.38C114.497 255.073 114.91 254.633 115.19 254.06C115.483 253.487 115.63 252.8 115.63 252V246.5H117.05V257H115.69V254.12L115.91 254.64C115.577 255.413 115.057 256.02 114.35 256.46C113.657 256.887 112.843 257.1 111.91 257.1ZM121.007 257V246.5H122.367V249.36L122.227 248.86C122.521 248.06 123.014 247.453 123.707 247.04C124.401 246.613 125.261 246.4 126.287 246.4V247.78C126.234 247.78 126.181 247.78 126.127 247.78C126.074 247.767 126.021 247.76 125.967 247.76C124.861 247.76 123.994 248.1 123.367 248.78C122.741 249.447 122.427 250.4 122.427 251.64V257H121.007ZM134.569 257V243H139.809C140.996 243 142.016 243.193 142.869 243.58C143.722 243.953 144.376 244.5 144.829 245.22C145.296 245.927 145.529 246.787 145.529 247.8C145.529 248.787 145.296 249.64 144.829 250.36C144.376 251.067 143.722 251.613 142.869 252C142.016 252.387 140.996 252.58 139.809 252.58H135.389L136.049 251.88V257H134.569ZM136.049 252L135.389 251.28H139.769C141.169 251.28 142.229 250.98 142.949 250.38C143.682 249.767 144.049 248.907 144.049 247.8C144.049 246.68 143.682 245.813 142.949 245.2C142.229 244.587 141.169 244.28 139.769 244.28H135.389L136.049 243.58V252ZM152.831 257.1C151.737 257.1 150.777 256.873 149.951 256.42C149.124 255.953 148.477 255.32 148.011 254.52C147.544 253.707 147.311 252.78 147.311 251.74C147.311 250.7 147.531 249.78 147.971 248.98C148.424 248.18 149.037 247.553 149.811 247.1C150.597 246.633 151.477 246.4 152.451 246.4C153.437 246.4 154.311 246.627 155.071 247.08C155.844 247.52 156.451 248.147 156.891 248.96C157.331 249.76 157.551 250.687 157.551 251.74C157.551 251.807 157.544 251.88 157.531 251.96C157.531 252.027 157.531 252.1 157.531 252.18H148.391V251.12H156.771L156.211 251.54C156.211 250.78 156.044 250.107 155.711 249.52C155.391 248.92 154.951 248.453 154.391 248.12C153.831 247.787 153.184 247.62 152.451 247.62C151.731 247.62 151.084 247.787 150.511 248.12C149.937 248.453 149.491 248.92 149.171 249.52C148.851 250.12 148.691 250.807 148.691 251.58V251.8C148.691 252.6 148.864 253.307 149.211 253.92C149.571 254.52 150.064 254.993 150.691 255.34C151.331 255.673 152.057 255.84 152.871 255.84C153.511 255.84 154.104 255.727 154.651 255.5C155.211 255.273 155.691 254.927 156.091 254.46L156.891 255.38C156.424 255.94 155.837 256.367 155.131 256.66C154.437 256.953 153.671 257.1 152.831 257.1ZM160.441 257V246.5H161.801V249.36L161.661 248.86C161.954 248.06 162.448 247.453 163.141 247.04C163.834 246.613 164.694 246.4 165.721 246.4V247.78C165.668 247.78 165.614 247.78 165.561 247.78C165.508 247.767 165.454 247.76 165.401 247.76C164.294 247.76 163.428 248.1 162.801 248.78C162.174 249.447 161.861 250.4 161.861 251.64V257H160.441ZM171.249 257.1C170.383 257.1 169.563 256.98 168.789 256.74C168.016 256.487 167.409 256.173 166.969 255.8L167.609 254.68C168.036 255 168.583 255.28 169.249 255.52C169.916 255.747 170.616 255.86 171.349 255.86C172.349 255.86 173.069 255.707 173.509 255.4C173.949 255.08 174.169 254.66 174.169 254.14C174.169 253.753 174.043 253.453 173.789 253.24C173.549 253.013 173.229 252.847 172.829 252.74C172.429 252.62 171.983 252.52 171.489 252.44C170.996 252.36 170.503 252.267 170.009 252.16C169.529 252.053 169.089 251.9 168.689 251.7C168.289 251.487 167.963 251.2 167.709 250.84C167.469 250.48 167.349 250 167.349 249.4C167.349 248.827 167.509 248.313 167.829 247.86C168.149 247.407 168.616 247.053 169.229 246.8C169.856 246.533 170.616 246.4 171.509 246.4C172.189 246.4 172.869 246.493 173.549 246.68C174.229 246.853 174.789 247.087 175.229 247.38L174.609 248.52C174.143 248.2 173.643 247.973 173.109 247.84C172.576 247.693 172.043 247.62 171.509 247.62C170.563 247.62 169.863 247.787 169.409 248.12C168.969 248.44 168.749 248.853 168.749 249.36C168.749 249.76 168.869 250.073 169.109 250.3C169.363 250.527 169.689 250.707 170.089 250.84C170.503 250.96 170.949 251.06 171.429 251.14C171.923 251.22 172.409 251.32 172.889 251.44C173.383 251.547 173.829 251.7 174.229 251.9C174.643 252.087 174.969 252.36 175.209 252.72C175.463 253.067 175.589 253.527 175.589 254.1C175.589 254.713 175.416 255.247 175.069 255.7C174.736 256.14 174.243 256.487 173.589 256.74C172.949 256.98 172.169 257.1 171.249 257.1ZM182.475 257.1C181.462 257.1 180.548 256.873 179.735 256.42C178.935 255.953 178.302 255.32 177.835 254.52C177.368 253.707 177.135 252.78 177.135 251.74C177.135 250.687 177.368 249.76 177.835 248.96C178.302 248.16 178.935 247.533 179.735 247.08C180.535 246.627 181.448 246.4 182.475 246.4C183.515 246.4 184.435 246.627 185.235 247.08C186.048 247.533 186.682 248.16 187.135 248.96C187.602 249.76 187.835 250.687 187.835 251.74C187.835 252.78 187.602 253.707 187.135 254.52C186.682 255.32 186.048 255.953 185.235 256.42C184.422 256.873 183.502 257.1 182.475 257.1ZM182.475 255.84C183.235 255.84 183.908 255.673 184.495 255.34C185.082 254.993 185.542 254.513 185.875 253.9C186.222 253.273 186.395 252.553 186.395 251.74C186.395 250.913 186.222 250.193 185.875 249.58C185.542 248.967 185.082 248.493 184.495 248.16C183.908 247.813 183.242 247.64 182.495 247.64C181.748 247.64 181.082 247.813 180.495 248.16C179.908 248.493 179.442 248.967 179.095 249.58C178.748 250.193 178.575 250.913 178.575 251.74C178.575 252.553 178.748 253.273 179.095 253.9C179.442 254.513 179.908 254.993 180.495 255.34C181.082 255.673 181.742 255.84 182.475 255.84ZM196.094 246.4C196.947 246.4 197.694 246.567 198.334 246.9C198.987 247.22 199.494 247.713 199.854 248.38C200.227 249.047 200.414 249.887 200.414 250.9V257H198.994V251.04C198.994 249.933 198.714 249.1 198.154 248.54C197.607 247.967 196.834 247.68 195.834 247.68C195.087 247.68 194.434 247.833 193.874 248.14C193.327 248.433 192.901 248.867 192.594 249.44C192.301 250 192.154 250.68 192.154 251.48V257H190.734V246.5H192.094V249.38L191.874 248.84C192.207 248.08 192.741 247.487 193.474 247.06C194.207 246.62 195.081 246.4 196.094 246.4ZM210.83 257V254.68L210.77 254.3V250.42C210.77 249.527 210.516 248.84 210.01 248.36C209.516 247.88 208.776 247.64 207.79 247.64C207.11 247.64 206.463 247.753 205.85 247.98C205.236 248.207 204.716 248.507 204.29 248.88L203.65 247.82C204.183 247.367 204.823 247.02 205.57 246.78C206.316 246.527 207.103 246.4 207.93 246.4C209.29 246.4 210.336 246.74 211.07 247.42C211.816 248.087 212.19 249.107 212.19 250.48V257H210.83ZM207.21 257.1C206.423 257.1 205.736 256.973 205.15 256.72C204.576 256.453 204.136 256.093 203.83 255.64C203.523 255.173 203.37 254.64 203.37 254.04C203.37 253.493 203.496 253 203.75 252.56C204.016 252.107 204.443 251.747 205.03 251.48C205.63 251.2 206.43 251.06 207.43 251.06H211.05V252.12H207.47C206.456 252.12 205.75 252.3 205.35 252.66C204.963 253.02 204.77 253.467 204.77 254C204.77 254.6 205.003 255.08 205.47 255.44C205.936 255.8 206.59 255.98 207.43 255.98C208.23 255.98 208.916 255.8 209.49 255.44C210.076 255.067 210.503 254.533 210.77 253.84L211.09 254.82C210.823 255.513 210.356 256.067 209.69 256.48C209.036 256.893 208.21 257.1 207.21 257.1ZM216.046 257V242.16H217.466V257H216.046ZM230.132 257L225.412 243H226.932L231.352 256.18H230.592L235.152 243H236.512L241.012 256.18H240.292L244.752 243H246.172L241.452 257H239.892L235.592 244.5H235.992L231.672 257H230.132ZM254.365 257V254.68L254.305 254.3V250.42C254.305 249.527 254.051 248.84 253.545 248.36C253.051 247.88 252.311 247.64 251.325 247.64C250.645 247.64 249.998 247.753 249.385 247.98C248.771 248.207 248.251 248.507 247.825 248.88L247.185 247.82C247.718 247.367 248.358 247.02 249.105 246.78C249.851 246.527 250.638 246.4 251.465 246.4C252.825 246.4 253.871 246.74 254.605 247.42C255.351 248.087 255.725 249.107 255.725 250.48V257H254.365ZM250.745 257.1C249.958 257.1 249.271 256.973 248.685 256.72C248.111 256.453 247.671 256.093 247.365 255.64C247.058 255.173 246.905 254.64 246.905 254.04C246.905 253.493 247.031 253 247.285 252.56C247.551 252.107 247.978 251.747 248.565 251.48C249.165 251.2 249.965 251.06 250.965 251.06H254.585V252.12H251.005C249.991 252.12 249.285 252.3 248.885 252.66C248.498 253.02 248.305 253.467 248.305 254C248.305 254.6 248.538 255.08 249.005 255.44C249.471 255.8 250.125 255.98 250.965 255.98C251.765 255.98 252.451 255.8 253.025 255.44C253.611 255.067 254.038 254.533 254.305 253.84L254.625 254.82C254.358 255.513 253.891 256.067 253.225 256.48C252.571 256.893 251.745 257.1 250.745 257.1ZM262.902 257.1C261.915 257.1 261.155 256.833 260.622 256.3C260.088 255.767 259.822 255.013 259.822 254.04V244.18H261.242V253.96C261.242 254.573 261.395 255.047 261.702 255.38C262.022 255.713 262.475 255.88 263.062 255.88C263.688 255.88 264.208 255.7 264.622 255.34L265.122 256.36C264.842 256.613 264.502 256.8 264.102 256.92C263.715 257.04 263.315 257.1 262.902 257.1ZM257.942 247.68V246.5H264.442V247.68H257.942ZM271.795 257.1C270.702 257.1 269.742 256.873 268.915 256.42C268.089 255.953 267.442 255.32 266.975 254.52C266.509 253.707 266.275 252.78 266.275 251.74C266.275 250.7 266.495 249.78 266.935 248.98C267.389 248.18 268.002 247.553 268.775 247.1C269.562 246.633 270.442 246.4 271.415 246.4C272.402 246.4 273.275 246.627 274.035 247.08C274.809 247.52 275.415 248.147 275.855 248.96C276.295 249.76 276.515 250.687 276.515 251.74C276.515 251.807 276.509 251.88 276.495 251.96C276.495 252.027 276.495 252.1 276.495 252.18H267.355V251.12H275.735L275.175 251.54C275.175 250.78 275.009 250.107 274.675 249.52C274.355 248.92 273.915 248.453 273.355 248.12C272.795 247.787 272.149 247.62 271.415 247.62C270.695 247.62 270.049 247.787 269.475 248.12C268.902 248.453 268.455 248.92 268.135 249.52C267.815 250.12 267.655 250.807 267.655 251.58V251.8C267.655 252.6 267.829 253.307 268.175 253.92C268.535 254.52 269.029 254.993 269.655 255.34C270.295 255.673 271.022 255.84 271.835 255.84C272.475 255.84 273.069 255.727 273.615 255.5C274.175 255.273 274.655 254.927 275.055 254.46L275.855 255.38C275.389 255.94 274.802 256.367 274.095 256.66C273.402 256.953 272.635 257.1 271.795 257.1ZM279.406 257V246.5H280.766V249.36L280.626 248.86C280.919 248.06 281.412 247.453 282.106 247.04C282.799 246.613 283.659 246.4 284.686 246.4V247.78C284.632 247.78 284.579 247.78 284.526 247.78C284.472 247.767 284.419 247.76 284.366 247.76C283.259 247.76 282.392 248.1 281.766 248.78C281.139 249.447 280.826 250.4 280.826 251.64V257H279.406ZM160.454 281.12C159.4 281.12 158.427 280.947 157.534 280.6C156.64 280.24 155.867 279.74 155.214 279.1C154.56 278.46 154.047 277.707 153.674 276.84C153.314 275.973 153.134 275.027 153.134 274C153.134 272.973 153.314 272.027 153.674 271.16C154.047 270.293 154.56 269.54 155.214 268.9C155.88 268.26 156.66 267.767 157.554 267.42C158.447 267.06 159.42 266.88 160.474 266.88C161.487 266.88 162.44 267.053 163.334 267.4C164.227 267.733 164.98 268.24 165.594 268.92L164.654 269.86C164.08 269.273 163.447 268.853 162.754 268.6C162.06 268.333 161.314 268.2 160.514 268.2C159.674 268.2 158.894 268.347 158.174 268.64C157.454 268.92 156.827 269.327 156.294 269.86C155.76 270.38 155.34 270.993 155.034 271.7C154.74 272.393 154.594 273.16 154.594 274C154.594 274.84 154.74 275.613 155.034 276.32C155.34 277.013 155.76 277.627 156.294 278.16C156.827 278.68 157.454 279.087 158.174 279.38C158.894 279.66 159.674 279.8 160.514 279.8C161.314 279.8 162.06 279.667 162.754 279.4C163.447 279.133 164.08 278.707 164.654 278.12L165.594 279.06C164.98 279.74 164.227 280.253 163.334 280.6C162.44 280.947 161.48 281.12 160.454 281.12ZM172.26 281.1C171.247 281.1 170.333 280.873 169.52 280.42C168.72 279.953 168.087 279.32 167.62 278.52C167.153 277.707 166.92 276.78 166.92 275.74C166.92 274.687 167.153 273.76 167.62 272.96C168.087 272.16 168.72 271.533 169.52 271.08C170.32 270.627 171.233 270.4 172.26 270.4C173.3 270.4 174.22 270.627 175.02 271.08C175.833 271.533 176.467 272.16 176.92 272.96C177.387 273.76 177.62 274.687 177.62 275.74C177.62 276.78 177.387 277.707 176.92 278.52C176.467 279.32 175.833 279.953 175.02 280.42C174.207 280.873 173.287 281.1 172.26 281.1ZM172.26 279.84C173.02 279.84 173.693 279.673 174.28 279.34C174.867 278.993 175.327 278.513 175.66 277.9C176.007 277.273 176.18 276.553 176.18 275.74C176.18 274.913 176.007 274.193 175.66 273.58C175.327 272.967 174.867 272.493 174.28 272.16C173.693 271.813 173.027 271.64 172.28 271.64C171.533 271.64 170.867 271.813 170.28 272.16C169.693 272.493 169.227 272.967 168.88 273.58C168.533 274.193 168.36 274.913 168.36 275.74C168.36 276.553 168.533 277.273 168.88 277.9C169.227 278.513 169.693 278.993 170.28 279.34C170.867 279.673 171.527 279.84 172.26 279.84ZM187.04 281V278.68L186.98 278.3V274.42C186.98 273.527 186.727 272.84 186.22 272.36C185.727 271.88 184.987 271.64 184 271.64C183.32 271.64 182.674 271.753 182.06 271.98C181.447 272.207 180.927 272.507 180.5 272.88L179.86 271.82C180.394 271.367 181.034 271.02 181.78 270.78C182.527 270.527 183.314 270.4 184.14 270.4C185.5 270.4 186.547 270.74 187.28 271.42C188.027 272.087 188.4 273.107 188.4 274.48V281H187.04ZM183.42 281.1C182.634 281.1 181.947 280.973 181.36 280.72C180.787 280.453 180.347 280.093 180.04 279.64C179.734 279.173 179.58 278.64 179.58 278.04C179.58 277.493 179.707 277 179.96 276.56C180.227 276.107 180.654 275.747 181.24 275.48C181.84 275.2 182.64 275.06 183.64 275.06H187.26V276.12H183.68C182.667 276.12 181.96 276.3 181.56 276.66C181.174 277.02 180.98 277.467 180.98 278C180.98 278.6 181.214 279.08 181.68 279.44C182.147 279.8 182.8 279.98 183.64 279.98C184.44 279.98 185.127 279.8 185.7 279.44C186.287 279.067 186.714 278.533 186.98 277.84L187.3 278.82C187.034 279.513 186.567 280.067 185.9 280.48C185.247 280.893 184.42 281.1 183.42 281.1ZM196.617 281.1C195.577 281.1 194.644 280.873 193.817 280.42C193.004 279.953 192.364 279.32 191.897 278.52C191.431 277.707 191.197 276.78 191.197 275.74C191.197 274.687 191.431 273.76 191.897 272.96C192.364 272.16 193.004 271.533 193.817 271.08C194.644 270.627 195.577 270.4 196.617 270.4C197.511 270.4 198.317 270.573 199.037 270.92C199.757 271.267 200.324 271.787 200.737 272.48L199.677 273.2C199.317 272.667 198.871 272.273 198.337 272.02C197.804 271.767 197.224 271.64 196.597 271.64C195.851 271.64 195.177 271.813 194.577 272.16C193.977 272.493 193.504 272.967 193.157 273.58C192.811 274.193 192.637 274.913 192.637 275.74C192.637 276.567 192.811 277.287 193.157 277.9C193.504 278.513 193.977 278.993 194.577 279.34C195.177 279.673 195.851 279.84 196.597 279.84C197.224 279.84 197.804 279.713 198.337 279.46C198.871 279.207 199.317 278.82 199.677 278.3L200.737 279.02C200.324 279.7 199.757 280.22 199.037 280.58C198.317 280.927 197.511 281.1 196.617 281.1ZM208.731 270.4C209.584 270.4 210.331 270.567 210.971 270.9C211.624 271.22 212.131 271.713 212.491 272.38C212.864 273.047 213.051 273.887 213.051 274.9V281H211.631V275.04C211.631 273.933 211.351 273.1 210.791 272.54C210.244 271.967 209.471 271.68 208.471 271.68C207.724 271.68 207.071 271.833 206.511 272.14C205.964 272.433 205.537 272.867 205.231 273.44C204.937 274 204.791 274.68 204.791 275.48V281H203.371V266.16H204.791V273.38L204.511 272.84C204.844 272.08 205.377 271.487 206.111 271.06C206.844 270.62 207.717 270.4 208.731 270.4Z" fill="#29302C"/>
<defs>
<linearGradient id="paint0_linear_1_733" x1="214.801" y1="185.572" x2="152.225" y2="81.5919" gradientUnits="userSpaceOnUse">
<stop stop-color="#A4EBF3"/>
<stop offset="0.9898" stop-color="#1D86C8"/>
</linearGradient>
<linearGradient id="paint1_linear_1_733" x1="180.799" y1="169.065" x2="178.96" y2="118.374" gradientUnits="userSpaceOnUse">
<stop stop-color="#0468B0"/>
<stop offset="1" stop-color="#47C1F0"/>
</linearGradient>
<linearGradient id="paint2_linear_1_733" x1="222.128" y1="96.4825" x2="190.597" y2="194.922" gradientUnits="userSpaceOnUse">
<stop stop-color="#F4F9F9"/>
<stop offset="1" stop-color="#1D1D1D"/>
</linearGradient>
</defs>
</svg>
